<?xml version="1.0" encoding="utf-8"?>
<!-- Generator: Adobe Illustrator 23.0.5, SVG Export Plug-In . SVG Version: 6.00 Build 0)  -->
<svg version="1.1" id="Layer_1" xmlns="http://www.w3.org/2000/svg" xmlns:xlink="http://www.w3.org/1999/xlink" x="0px" y="0px"
	 viewBox="0 0 414 110.6" style="enable-background:new 0 0 414 110.6;" xml:space="preserve">
<style type="text/css">
	.st0{fill:#7992B7;}
	.st1{fill:#6084BC;}
</style>
<path class="st0" d="M414,20H0v51.1l16.5,8.5C33,88.3,66,105,99,109.4s66-4.4,99.1-17c33-12.9,66-29.7,99.1-38.3
	c33-8.5,66-8.5,99.1,2.2c6,1.9,11.9,4.2,17.8,6.6V20z"/>
<path id="wave-2" class="st1" d="M414,89.4l-13.8-10.7c-13.8-10.5-41.4-32.1-69-42.6C303.6,25.5,276,25.5,248.4,34
	c-27.6,8.7-55.2,25.4-82.8,38.3C138,85,110.4,93.8,82.8,89.4s-55.2-21.2-69-29.8L0,51.1V0h414V89.4z"/>
</svg>
